<svg width="137" height="31" viewBox="0 0 137 31" fill="none" xmlns="http://www.w3.org/2000/svg">
<path d="M40.5161 19.9019C40.5161 16.7038 40.4249 13.5002 40.5416 10.3058C40.66 7.05121 41.8354 4.203 44.4212 2.07277C45.5164 1.17074 46.7792 0.596726 48.1678 0.272362C49.5363 -0.0483581 50.9158 -0.0775147 52.277 0.141158C54.6551 0.523835 56.6432 1.65546 58.1502 3.56703C59.2326 4.94102 59.9724 6.48813 60.2494 8.21017C60.4535 9.47847 60.6121 10.7705 60.6193 12.0533C60.6576 17.983 60.6357 23.9127 60.6357 29.8424C60.6357 30.4291 60.6303 30.4364 60.0362 30.4364C59.0631 30.4364 58.09 30.4401 57.1169 30.4364C56.676 30.4346 56.634 30.389 56.634 29.9462C56.634 25.775 56.634 21.6057 56.634 17.4345C56.634 17.0555 56.4421 16.866 56.0582 16.866C52.9294 16.866 49.8023 16.866 46.6735 16.866C45.9337 16.866 46.0284 16.8933 46.0248 16.2008C46.0211 15.3389 46.023 14.4788 46.0248 13.6169C46.0248 13.1248 46.0466 13.103 46.5514 13.1012C49.7039 13.1012 52.8565 13.1012 56.009 13.1012C56.5994 13.1012 56.6413 13.0683 56.6304 12.4706C56.614 11.5723 56.645 10.6684 56.5429 9.77915C56.337 7.97875 55.7466 6.32048 54.307 5.11596C52.8492 3.89686 51.1508 3.55609 49.2921 3.9169C47.7322 4.2194 46.535 5.04307 45.6804 6.36604C45.1282 7.22068 44.7455 8.15733 44.6399 9.16687C44.525 10.2511 44.443 11.3463 44.4394 12.436C44.4212 18.2545 44.4303 24.0749 44.4303 29.8934C44.4303 30.2615 44.2469 30.4461 43.88 30.4473C42.9561 30.4473 42.0322 30.4473 41.1083 30.4473C40.7086 30.4473 40.5088 30.2414 40.5088 29.8296C40.5088 26.5204 40.5088 23.2111 40.5088 19.9019H40.5142H40.5161Z" fill="#FEFEFE"/>
<path d="M123.922 9.48767C127.929 9.6043 130.992 11.3701 133.075 14.7959C134.276 16.7713 134.554 18.9544 134.396 21.2213C134.168 24.474 132.637 27.0088 130.057 28.9149C127.878 30.524 125.379 31.1691 122.702 30.8119C119.054 30.3253 116.348 28.3755 114.621 25.1392C113.595 23.2167 113.218 21.1211 113.474 18.9598C113.908 15.3226 115.71 12.54 118.923 10.7286C120.288 9.95782 122.092 9.44394 123.923 9.4895L123.922 9.48767ZM124.127 27.2566C124.893 27.2949 125.855 27.0999 126.755 26.6753C128.72 25.7514 129.864 24.1478 130.323 22.0796C130.784 20.0095 130.56 17.9959 129.456 16.1408C128.488 14.5135 127.027 13.5441 125.186 13.2252C123.881 12.9992 122.571 13.083 121.312 13.6188C119.792 14.2675 118.708 15.3499 118.023 16.8278C117.447 18.076 117.228 19.4063 117.332 20.7766C117.445 22.2873 117.877 23.6959 118.841 24.8913C120.133 26.4949 121.837 27.2585 124.126 27.2566H124.127Z" fill="#FEFEFE"/>
<path d="M89.6829 30.4382C87.8734 30.4382 86.0621 30.4382 84.2525 30.4382C83.8006 30.4382 83.7751 30.4108 83.7733 29.9535C83.7715 29.0915 83.7715 28.2314 83.7733 27.3695C83.7733 26.8975 83.8371 26.8374 84.3072 26.8355C87.5217 26.8355 90.7362 26.8447 93.9488 26.8246C94.4682 26.821 95.0021 26.7353 95.5032 26.6005C96.6586 26.2889 96.9064 24.268 95.762 23.5482C95.1953 23.191 94.5957 22.8539 93.9652 22.6389C92.225 22.0466 90.4464 21.5601 88.7098 20.9605C87.3704 20.4995 86.0948 19.8763 85.0871 18.8394C84.2416 17.9684 83.8043 16.9187 83.7733 15.6905C83.7295 13.9102 84.196 12.3612 85.6776 11.2442C86.3937 10.703 87.2174 10.4023 88.0829 10.1873C89.1982 9.91029 90.3298 9.9358 91.4614 9.93398C93.9124 9.92669 96.3633 9.93216 98.8125 9.93398C99.4138 9.93398 99.4138 9.9358 99.4138 10.5171C99.4138 11.3043 99.4138 12.0916 99.4138 12.8788C99.4138 13.5002 99.412 13.5038 98.7669 13.5038C96.1064 13.5038 93.4477 13.4983 90.7872 13.5093C90.2351 13.5111 89.6811 13.5585 89.1308 13.6186C88.3654 13.7024 87.8916 14.0742 87.7531 14.6446C87.5381 15.5338 87.7221 16.1862 88.4438 16.6017C89.0961 16.9771 89.7959 17.2996 90.5102 17.5365C92.0701 18.0522 93.6682 18.4549 95.2226 18.987C96.6422 19.4754 98.0016 20.115 99.0567 21.2394C99.8384 22.0721 100.296 23.0507 100.367 24.2042C100.454 25.6128 100.258 26.9485 99.4357 28.1403C98.8362 29.0095 98.0125 29.5799 97.0412 29.9589C95.9916 30.3689 94.8964 30.4619 93.7812 30.4455C92.4145 30.4254 91.0478 30.44 89.6811 30.44L89.6829 30.4382Z" fill="#FEFEFE"/>
<path d="M102.195 14.8687C102.195 11.7071 102.195 8.54543 102.195 5.38379C102.195 4.80066 102.218 4.77515 102.792 4.77515C103.631 4.77515 104.467 4.77515 105.305 4.77515C105.881 4.77515 105.921 4.81341 105.921 5.3765C105.921 6.70493 105.921 8.03337 105.921 9.3618C105.921 9.87568 105.979 9.93217 106.495 9.93217C108.563 9.93217 110.633 9.94129 112.702 9.92489C113.072 9.92306 113.199 10.0306 113.188 10.406C113.165 11.2916 113.17 12.1772 113.186 13.0628C113.192 13.4036 113.063 13.5093 112.731 13.5075C110.674 13.4965 108.618 13.502 106.561 13.502C105.979 13.502 105.921 13.5603 105.921 14.1307C105.921 17.4654 105.907 20.7984 105.936 24.1331C105.941 24.6835 106.065 25.2575 106.256 25.775C106.484 26.3873 107.049 26.6624 107.676 26.7444C108.126 26.8046 108.583 26.8265 109.039 26.8301C110.284 26.841 111.526 26.8392 112.771 26.8301C113.048 26.8283 113.185 26.9194 113.183 27.2073C113.177 28.1786 113.177 29.1517 113.183 30.1229C113.183 30.3689 113.068 30.4382 112.842 30.4364C111.069 30.4273 109.29 30.5038 107.523 30.3981C105.325 30.2651 103.705 29.1808 102.823 27.1034C102.355 25.9973 102.191 24.8384 102.191 23.6484C102.191 20.72 102.191 17.7916 102.191 14.8651L102.195 14.8687Z" fill="#FEFEFE"/>
<path d="M67.7353 12.088C67.8356 11.9969 67.9558 11.9185 68.0324 11.811C69.0492 10.4005 70.4706 9.71901 72.1598 9.53678C72.6591 9.48394 73.1694 9.51674 73.6741 9.50034C73.9493 9.49123 74.0404 9.61697 74.0386 9.87937C74.0313 10.8142 74.0331 11.749 74.0386 12.6857C74.0386 12.9936 73.911 13.1011 73.5958 13.1285C72.9015 13.1886 72.1963 13.2433 71.5238 13.4128C70.3722 13.7061 69.5357 14.4551 68.949 15.4756C68.1144 16.9243 67.8629 18.5333 67.8374 20.1606C67.7864 23.397 67.8173 26.6333 67.8155 29.8697C67.8155 30.2499 67.6266 30.4401 67.2488 30.4401C66.3377 30.4401 65.4247 30.4309 64.5136 30.4455C64.2038 30.451 64.1108 30.3325 64.1108 30.0337C64.1163 23.4753 64.1163 16.917 64.1108 10.3568C64.1108 10.0361 64.2202 9.92311 64.5409 9.92857C65.4283 9.94315 66.314 9.94315 67.2014 9.92857C67.5458 9.92311 67.657 10.0671 67.6479 10.3933C67.6333 10.9436 67.6442 11.4939 67.6442 12.0424C67.6752 12.057 67.708 12.0734 67.739 12.088H67.7353Z" fill="#FEFEFE"/>
<path d="M80.6427 20.2135C80.6427 23.4481 80.6427 26.6826 80.6427 29.9189C80.6427 30.4365 80.6427 30.4383 80.1379 30.4383C79.214 30.4383 78.2901 30.4274 77.3681 30.4438C77.04 30.4492 76.9398 30.329 76.9453 30.0119C76.9617 29.2119 76.9508 28.4137 76.9508 27.6138C76.9471 21.9064 76.9453 16.1991 76.9417 10.4917C76.9417 9.9341 76.9453 9.93228 77.492 9.93228C78.3903 9.93228 79.2905 9.94685 80.1889 9.92499C80.5534 9.91587 80.65 10.0525 80.6481 10.397C80.639 13.6679 80.6427 16.9407 80.6427 20.2117V20.2135Z" fill="#FEFEFE"/>
<path d="M76.5349 5.3183C76.5349 4.07551 77.5153 3.09512 78.7453 3.0769C79.9863 3.05868 81.0104 4.07551 81.0396 5.33652C81.0669 6.5702 79.9991 7.64351 78.7818 7.63987C77.5681 7.63622 76.5367 6.57019 76.5349 5.32012V5.3183Z" fill="#FEFEFE"/>
<path d="M18.9042 19.1499C18.9042 20.5461 18.8645 21.9447 18.915 23.3396C18.9655 24.719 19.4826 25.9095 20.6226 26.7621C21.4344 27.3682 22.3712 27.5462 23.3609 27.5041C25.0252 27.4332 26.1989 26.5962 26.9493 25.1459C27.3823 24.3077 27.3871 23.3937 27.2957 22.4798C27.1706 21.2303 26.6343 20.2045 25.5844 19.4794C24.9543 19.0441 24.2388 18.8252 23.4835 18.8011C22.4602 18.7675 21.4356 18.7891 20.411 18.7855C20.0683 18.7855 20.0526 18.7687 20.0526 18.4283C20.0526 17.7297 20.0526 17.0322 20.0526 16.3335C20.0526 16.0076 20.0983 15.9595 20.4146 15.9595C21.6665 15.9607 22.9183 15.9462 24.1702 15.9727C26.3384 16.0184 27.9487 17.0706 29.108 18.8396C30.1073 20.3657 30.4837 22.0721 30.3009 23.8748C30.0941 25.9167 29.1993 27.6172 27.5603 28.8895C26.8363 29.4511 26.0234 29.8407 25.1323 30.074C24.4203 30.2604 23.7036 30.365 22.9664 30.353C20.7357 30.3157 18.9174 29.4366 17.5308 27.6881C16.956 26.9642 16.5592 26.1464 16.2898 25.2613C15.9928 24.2897 15.8749 23.2975 15.8773 22.2862C15.8797 21.2303 15.8785 20.1745 15.8773 19.1198C15.8773 18.7975 15.8653 18.7879 15.5514 18.7867C15.2917 18.7867 15.0307 18.7999 14.771 18.7831C14.5304 18.7663 14.4595 18.8661 14.4607 19.0934C14.4679 20.1901 14.4571 21.2856 14.4655 22.3824C14.4715 23.2482 14.3789 24.1045 14.1552 24.9366C13.6453 26.8343 12.6075 28.3736 10.8963 29.3909C9.39548 30.2821 7.766 30.5334 6.04152 30.252C5.09269 30.0969 4.2064 29.7938 3.38504 29.2984C2.43622 28.7271 1.67139 27.9659 1.09536 27.0243C0.254762 25.6534 -0.099995 24.1526 0.0262745 22.558C0.204254 20.3128 1.07972 18.4115 2.92927 17.0406C3.94664 16.2866 5.10953 15.9559 6.37222 15.9583C7.94157 15.9619 9.50972 15.9583 11.0791 15.9583C11.4386 15.9583 11.4543 15.9438 11.4531 15.5915C11.4507 12.7582 11.4723 9.92379 11.4326 7.09054C11.4134 5.7112 10.8975 4.51464 9.77188 3.64278C9.15135 3.16176 8.43583 2.93206 7.65656 2.86833C5.90202 2.72522 4.5347 3.37341 3.59068 4.86339C3.28042 5.35283 3.0808 5.89399 3.04231 6.48084C2.99181 7.25289 2.98098 8.02494 3.22029 8.77293C3.56663 9.85645 4.22323 10.6802 5.27187 11.1721C5.9405 11.4859 6.65001 11.5869 7.37877 11.5893C8.23259 11.5918 9.08521 11.5893 9.93904 11.5893C10.2721 11.5893 10.2986 11.617 10.2986 11.9525C10.2986 12.6668 10.295 13.3812 10.301 14.0967C10.3022 14.3011 10.2277 14.3961 10.0172 14.3961C8.64387 14.3889 7.26934 14.4082 5.896 14.3769C4.56837 14.3456 3.42954 13.8057 2.44343 12.9398C1.4898 12.1028 0.842818 11.0662 0.43635 9.86486C0.0839978 8.81743 -0.0699308 7.74594 0.0298823 6.65281C0.237926 4.38477 1.21802 2.53642 3.1289 1.23524C4.69224 0.169768 6.45039 -0.169356 8.28551 0.0759674C10.5824 0.382622 12.3117 1.60203 13.4409 3.64038C14.1612 4.94155 14.4427 6.35217 14.4607 7.8217C14.4739 8.9425 14.4631 10.0633 14.4631 11.1829C14.4631 11.5653 14.4787 11.5785 14.8611 11.5797C15.0968 11.5797 15.3338 11.5665 15.5683 11.5833C15.8124 11.6014 15.8905 11.4883 15.8773 11.2683C15.8737 11.2033 15.8773 11.1384 15.8773 11.0734C15.8773 10.0825 15.8821 9.09161 15.8761 8.1019C15.8689 7.01478 15.9916 5.94329 16.3439 4.9151C16.9656 3.09682 18.0792 1.67899 19.8097 0.774659C21.147 0.0747649 22.5744 -0.115241 24.0415 0.0699546C26.2531 0.34895 28.016 1.40841 29.227 3.30366C29.7369 4.10096 30.046 4.98124 30.2191 5.91924C30.4079 6.94503 30.3815 7.9624 30.1602 8.96535C29.7369 10.8931 28.7664 12.4804 27.072 13.5555C26.1328 14.152 25.089 14.4094 23.9706 14.3985C22.4024 14.3829 20.8331 14.3949 19.2637 14.3949C18.9102 14.3949 18.8921 14.4118 18.8921 14.7665C18.8921 16.2276 18.8921 17.69 18.8921 19.1511C18.897 19.1511 18.9006 19.1511 18.9054 19.1511L18.9042 19.1499ZM18.9042 9.00142C18.9042 9.00142 18.8958 9.00142 18.8909 9.00142C18.8909 9.74822 18.8897 10.495 18.8909 11.243C18.8909 11.5521 18.921 11.5797 19.2229 11.5797C20.4579 11.5797 21.6941 11.5785 22.9292 11.5797C23.6748 11.5809 24.3999 11.4859 25.083 11.1624C25.9825 10.7379 26.5994 10.0525 26.9866 9.14332C27.2933 8.42299 27.3366 7.66657 27.3318 6.90054C27.3258 6.05633 27.0744 5.2891 26.5874 4.60363C25.8105 3.5093 24.7378 2.91643 23.403 2.84548C22.3844 2.79136 21.4127 2.98979 20.5794 3.63076C19.4742 4.48097 18.9908 5.65227 18.909 7.00275C18.8693 7.66657 18.9018 8.334 18.9018 9.00022L18.9042 9.00142ZM11.4398 21.3362C11.4398 21.3362 11.4483 21.3362 11.4519 21.3362C11.4519 20.6062 11.4519 19.875 11.4519 19.1451C11.4519 18.7915 11.4446 18.7855 11.1043 18.7855C9.81277 18.7855 8.52121 18.7855 7.22965 18.7855C6.41191 18.7855 5.63625 18.9479 4.92914 19.3748C4.04766 19.9063 3.4572 20.6723 3.21669 21.6657C3.08681 22.2032 3.05674 22.7684 3.01706 23.3228C2.97136 23.965 3.10725 24.5891 3.40188 25.1579C4.11019 26.5252 5.20573 27.361 6.77508 27.4885C7.92955 27.5823 9.00825 27.3779 9.91979 26.6058C10.9143 25.7628 11.3521 24.6456 11.4314 23.3805C11.4747 22.7011 11.4386 22.018 11.4386 21.3362H11.4398ZM15.8749 15.1754C15.8749 14.9974 15.8749 14.8194 15.8749 14.6415C15.8749 14.4779 15.8088 14.3877 15.626 14.3925C15.3265 14.4009 15.0259 14.3997 14.7265 14.3925C14.5521 14.3877 14.4667 14.4599 14.4655 14.6306C14.4631 14.995 14.4631 15.3594 14.4643 15.7226C14.4643 15.8789 14.5389 15.9607 14.7036 15.9583C15.0115 15.9547 15.3193 15.9535 15.6272 15.9583C15.8052 15.9619 15.8773 15.8777 15.8761 15.7081C15.8749 15.5302 15.8761 15.3522 15.8761 15.1742L15.8749 15.1754Z" fill="#FEFEFE"/>
</svg>
